<svg xmlns="http://www.w3.org/2000/svg"  viewBox="0 0 64 64" width="64px" height="64px"><rect width="56" height="40" x="5" y="17" fill="#6c8cbc"/><rect width="54" height="40" x="3" y="5" fill="#abddff"/><rect width="20" height="10" x="9" y="17" fill="#6c8cbc"/><rect width="56" height="8" x="3" y="5" fill="#6c8cbc"/><rect width="19.799" height="4.243" x="17.601" y="34.379" fill="#6c8cbc" transform="rotate(-45 27.5 36.5)"/><rect width="21.213" height="8.485" x="2.893" y="46.257" fill="#fedb7d" transform="rotate(-45 13.5 50.5)"/><circle cx="43" cy="21" r="18" fill="#fedb7d"/><circle cx="43" cy="21" r="14" fill="#abddff"/><rect width="5.657" height="8.485" x="16.172" y="40.757" fill="#f1836f" transform="rotate(-45 19 45)"/><polygon fill="#6c8cbc" points="49 14 41 22 37 18 34 21 41 28 44 25 45 24 52 17 49 14"/><path fill="#f1836f" d="M9,10H7A1,1,0,0,1,7,8H9a1,1,0,0,1,0,2Z"/><path fill="#fedb7d" d="M15,10H13a1,1,0,0,1,0-2h2a1,1,0,0,1,0,2Z"/><path fill="#abddff" d="M21,10H19a1,1,0,0,1,0-2h2a1,1,0,0,1,0,2Z"/><rect width="20" height="4" x="37" y="49" fill="#fedb7d"/><path fill="#fedb7d" d="M20,32H10a1,1,0,0,1,0-2H20a1,1,0,0,1,0,2Z"/><path fill="#fedb7d" d="M17,36H10a1,1,0,0,1,0-2h7a1,1,0,0,1,0,2Z"/><path fill="#fedb7d" d="M12,40H10a1,1,0,0,1,0-2h2a1,1,0,0,1,0,2Z"/><path fill="#f1836f" d="M33,50H27a1,1,0,0,1,0-2h6a1,1,0,0,1,0,2Z"/><path fill="#f1836f" d="M33,54H23a1,1,0,0,1,0-2H33a1,1,0,0,1,0,2Z"/></svg>