<svg xmlns="http://www.w3.org/2000/svg" data-name="Layer 1" viewBox="0 0 512 512"><path fill="#f66" d="M474.5,504.5H145a30,30,0,0,1-30-30V433.88l2.25-23.24c.07-.68.14-1.35.22-2,3.75-30.15,26.24-54.61,55.74-61.87l73.42-13.46,63.14-95.15,63.88,94.5,72.68,14.11c29.49,7.26,52,31.72,55.74,61.87.08.67.15,1.34.22,2l2.25,23.24V474.5A30,30,0,0,1,474.5,504.5Z"/><path fill="#ff4e4e" d="M221.12 338l-48 8.79c-29.5 7.26-52 31.72-55.74 61.87-.08.67-.16 1.34-.22 2L115.43 429A99.38 99.38 0 0 0 221.12 338zM502.25 410.64c-.07-.68-.14-1.35-.22-2-3.75-30.15-26.25-54.61-55.74-61.87l-72.68-14.11-63.88-94.5-14.86 22.39 48.74 72.11 72.68 14.11c29.49 7.26 52 31.72 55.74 61.87.08.67.15 1.34.22 2l2.25 23.24V474.5a30 30 0 0 1-30 30h30a30 30 0 0 0 30-30V433.88z"/><polygon fill="#ffcd85" points="246.59 333.29 309.73 238.14 366.17 321.63 309.73 371.73 246.59 333.29"/><path fill="#ffc166" d="M309.73,238.14l-14.86,22.39,32.2,47.63A18.55,18.55,0,0,1,324,332.42L291.94,360.9l17.79,10.83,56.44-50.1Z"/><path fill="#ff4e4e" d="M428.91 504.5V443.25a7.5 7.5 0 0 1 15 0V504.5zM354 408.32l42.52-52.8a4 4 0 0 0 .28-4.63l-20.25-32.27a4 4 0 0 0-6-.87l-60.81 54 38.42 37A4 4 0 0 0 354 408.32z"/><path fill="#ff4e4e" d="M264.79,407.47l-41.36-51.35a5,5,0,0,1-.3-5.86L242.75,320a5,5,0,0,1,7.52-1l59.52,52.77-37.64,36.21A5,5,0,0,1,264.79,407.47Z"/><path fill="#676e87" d="M355.62,176.72l-122.4,13.7V119.74c0-15.86,13.71-32.81,30.62-32.81h117.4a5,5,0,0,1,5,5V148C386.24,163.86,372.53,176.72,355.62,176.72Z"/><path fill="#595f74" d="M381.24,86.93h-30a5,5,0,0,1,5,5V148c0,15.85-13.71,28.71-30.62,28.71l-92.4,6.67v7l122.4-13.7c16.91,0,30.62-12.86,30.62-28.71V91.93A5,5,0,0,0,381.24,86.93Z"/><path fill="#ffcd85" d="M242.22,161.72H377.35a8.89,8.89,0,0,1,8.89,8.89v68.75a76.51,76.51,0,0,1-76.51,76.51h0a76.51,76.51,0,0,1-76.51-76.51V170.72A9,9,0,0,1,242.22,161.72Z"/><path fill="#ffc166" d="M377.35,161.72h-30a8.89,8.89,0,0,1,8.89,8.89v68.74a76.54,76.54,0,0,1-61.51,75,77.15,77.15,0,0,0,15,1.48h0a76.52,76.52,0,0,0,76.51-76.51V170.61A8.89,8.89,0,0,0,377.35,161.72Z"/><path fill="#ffc166" d="M309.78,275.85h-.72a40.67,40.67,0,0,1-21.7-6.74,7.5,7.5,0,1,1,8.26-12.52,25.63,25.63,0,0,0,28.34,0,7.5,7.5,0,0,1,8.25,12.52A41.31,41.31,0,0,1,309.78,275.85Z"/><path fill="#ffcd85" d="M386.24,186h13.44a12.91,12.91,0,0,1,12.91,12.91V219a12.91,12.91,0,0,1-12.91,12.91H386.24a0,0,0,0,1,0,0V186A0,0,0,0,1,386.24,186Z"/><path fill="#ffc166" d="M206.87,186h13.44a12.91,12.91,0,0,1,12.91,12.91V219a12.91,12.91,0,0,1-12.91,12.91H206.87a0,0,0,0,1,0,0V186A0,0,0,0,1,206.87,186Z" transform="rotate(180 220.05 208.98)"/><path fill="#676e87" d="M343.07 213.2a7.5 7.5 0 0 1-7.5-7.5V196a7.5 7.5 0 0 1 15 0v9.68A7.5 7.5 0 0 1 343.07 213.2zM276.39 213.2a7.5 7.5 0 0 1-7.5-7.5V196a7.5 7.5 0 1 1 15 0v9.68A7.5 7.5 0 0 1 276.39 213.2z"/><path fill="#ff4e4e" d="M238,469.67l-28.92-49.21a7,7,0,0,0-9.54-2.52h0a2.93,2.93,0,0,1-4-1.08l-13.44-23.28-21.85,12.61L175.14,432l-3.62,2.08a7,7,0,0,0-2.53,9.61l29,49.43a23.17,23.17,0,0,0,31.56,8.33h0A23.18,23.18,0,0,0,238,469.67Z"/><rect width="25.23" height="31.05" x="151.29" y="397.81" fill="#676e87" transform="rotate(-30 163.906 413.339)"/><path fill="#595f74" d="M167.07,393.58l-11.25,6.5,5.65,9.79A12.23,12.23,0,0,1,157,426.59h0l3.75,6.49,21.85-12.61Z"/><path fill="#ffcd85" d="M214.59,501.48h0A23.17,23.17,0,0,1,183,493.15l-29-49.43a7,7,0,0,1,2.53-9.61l28-16.17a7,7,0,0,1,9.54,2.52L223,469.67A23.18,23.18,0,0,1,214.59,501.48Z"/><path fill="#ffc166" d="M223,469.67l-28.92-49.21a7,7,0,0,0-9.54-2.52l-10.7,6.18,26.77,45.55a23.17,23.17,0,0,1-8.39,31.81h0l-.4.22a23.13,23.13,0,0,0,22.78-.22h0A23.18,23.18,0,0,0,223,469.67Z"/><circle cx="309.73" cy="416.8" r="7.5" fill="#ff4e4e"/><circle cx="106.99" cy="314.75" r="99.51" fill="#d9f0ff" transform="matrix(.94 -.33 .33 .94 -99.09 53.89)"/><path fill="#b3e0ff" d="M107.24,421.77a107.68,107.68,0,0,1-27.93-3.7A107,107,0,1,1,199.66,261.25a107,107,0,0,1-92.42,160.52Zm-.48-199a92.4,92.4,0,1,0,24,3.18A92.8,92.8,0,0,0,106.76,222.74Z"/><circle cx="309.73" cy="446.8" r="7.5" fill="#ff4e4e"/><circle cx="309.73" cy="476.8" r="7.5" fill="#ff4e4e"/><rect width="112.46" height="74.82" x="50.76" y="289.58" fill="#ffc166" rx="7.38"/><path fill="#ffb74e" d="M155.84,289.58h-30a7.38,7.38,0,0,1,7.38,7.38V357a7.39,7.39,0,0,1-7.38,7.38h30a7.39,7.39,0,0,0,7.38-7.38V297A7.38,7.38,0,0,0,155.84,289.58Z"/><path fill="#676e87" d="M132.76,312.08H81.22a7.5,7.5,0,0,1-7.5-7.5V273.26A15.68,15.68,0,0,1,89.37,257.6h35.24a15.68,15.68,0,0,1,15.65,15.66v31.32A7.5,7.5,0,0,1,132.76,312.08Zm-44-15h36.54V273.26a.66.66,0,0,0-.65-.66H89.37a.66.66,0,0,0-.65.66Z"/><path fill="#ffae36" d="M163.22,312l-51.35,22.35a12.27,12.27,0,0,1-9.76,0L50.76,312V297a7.38,7.38,0,0,1,7.38-7.38h97.7a7.38,7.38,0,0,1,7.38,7.38Z"/><path fill="#ffa41f" d="M155.84,289.58h-30a7.38,7.38,0,0,1,7.38,7.38v28.13l30-13.06V297A7.38,7.38,0,0,0,155.84,289.58Z"/><path fill="#272a33" d="M309.73,439.3a7.5,7.5,0,1,0,7.5,7.5A7.5,7.5,0,0,0,309.73,439.3ZM170.72,357V297a14.9,14.9,0,0,0-14.88-14.88H140.26v-8.82a15.68,15.68,0,0,0-15.65-15.66H89.37a15.68,15.68,0,0,0-15.65,15.66v8.82H58.14A14.9,14.9,0,0,0,43.26,297V357A14.9,14.9,0,0,0,58.14,371.9h97.7A14.9,14.9,0,0,0,170.72,357Zm-82-83.76a.66.66,0,0,1,.65-.66h35.24a.66.66,0,0,1,.65.66v8.82H88.72Zm67,83.64H58.26V323.47l40.85,17.78a19.75,19.75,0,0,0,15.76,0l40.85-17.78Zm0-49.79L108.88,327.5a4.77,4.77,0,0,1-3.78,0L58.26,307.11v-10h97.46ZM512,433.16l-2.25-23.25q-.1-1.11-.24-2.22c-4.08-32.77-28.75-60.19-61.39-68.22l-.36-.08-45.29-8.8a13.74,13.74,0,0,0-1.75-1.92l-17.57-16a13.48,13.48,0,0,0-15.28-2l-4.52-6.7a83.84,83.84,0,0,0,30.42-64.56h5.94A20.43,20.43,0,0,0,420.08,219v-20.1a20.43,20.43,0,0,0-20.41-20.41h-5.93V170.6a16.31,16.31,0,0,0-2.77-9.09,34.54,34.54,0,0,0,2.77-13.5V91.93a12.52,12.52,0,0,0-12.5-12.5H263.84c-21.81,0-38.12,21.28-38.12,40.31v58.78h-5.93a20.44,20.44,0,0,0-20.42,20.41V219a20.44,20.44,0,0,0,20.42,20.41h5.94a83.84,83.84,0,0,0,31,65l-4.49,6.76a13.43,13.43,0,0,0-15.35,2l-17,15.52a13.48,13.48,0,0,0-1.94,2.21l-5.32,1a106.87,106.87,0,0,0-77.91-120.47A107,107,0,1,0,79.31,418.07a107.68,107.68,0,0,0,27.93,3.7c.46,0,.91,0,1.36,0l-1.11,11.42q0,.36,0,.72V474.5A37.54,37.54,0,0,0,145,512h56.15q1,.06,2,.06c.65,0,1.31,0,2-.06H474.5A37.54,37.54,0,0,0,512,474.5V433.88A5.79,5.79,0,0,0,512,433.16ZM393.74,193.52h5.93a5.41,5.41,0,0,1,5.41,5.41V219a5.41,5.41,0,0,1-5.41,5.41h-5.93Zm-168,30.92h-5.93a5.42,5.42,0,0,1-5.42-5.41v-20.1a5.42,5.42,0,0,1,5.42-5.41h5.93ZM374,324.7l15.63,14.21L350,400,320.78,372Zm-64.26,37-46-40.75,5.35-8.06A83.72,83.72,0,0,0,351,312.5l5.33,7.89Zm-69-241.94c0-11.47,10.32-25.31,23.12-25.31h114.9V148a19.6,19.6,0,0,1-1,6.22H243.22a17.21,17.21,0,0,0-2.5.2Zm0,119.61V171.72a2.5,2.5,0,0,1,2.5-2.5H377.35a1.39,1.39,0,0,1,1.39,1.38v68.75a69,69,0,1,1-138,0ZM246,325.18,298.74,372l-29.11,28-38.76-61ZM117.67,405.87a7.4,7.4,0,0,0-3.81.63,91.88,91.88,0,1,1,50.73-20,8.09,8.09,0,0,0-1.27.59L141.47,399.7a7.81,7.81,0,0,0-1.14.81,91.26,91.26,0,0,1-21.7,5.52A7.39,7.39,0,0,0,117.67,405.87Zm54.07,10.8-8.86,5.11L156,409.86c1.51-.78,3-1.58,4.49-2.44s2.94-1.74,4.37-2.66ZM145,497a22.52,22.52,0,0,1-22.5-22.5V434.24l1.33-13.79a106.37,106.37,0,0,0,18.34-4.61l8,13.79a14.46,14.46,0,0,0-2.57,17.89l29,49.43,0,.05Zm73.2-11.59a15.52,15.52,0,0,1-7.32,9.57h0a15.46,15.46,0,0,1-6.48,2h-2.69a15.66,15.66,0,0,1-12.17-7.65l-28.66-48.77a7.5,7.5,0,0,0,3.65-1L186.34,427a7.54,7.54,0,0,0,1.92-1.59l28.26,48.1A15.55,15.55,0,0,1,218.16,485.41ZM497,474.5A22.52,22.52,0,0,1,474.5,497H443.91V443.25a7.5,7.5,0,0,0-15,0V497H229.43a30.91,30.91,0,0,0,3.24-7.76,30.45,30.45,0,0,0-3.22-23.37l-28.91-49.21a14.56,14.56,0,0,0-15.44-6.84L177,395.73a106.1,106.1,0,0,0,31.71-47.87l9-1.65L258,409.55a13.45,13.45,0,0,0,9.79,6.17,14.67,14.67,0,0,0,1.62.1,13.48,13.48,0,0,0,9.35-3.78l31.05-29.87,31.11,29.93a13.5,13.5,0,0,0,20.68-2.38h0L402.92,346l0,0,41.73,8.11c26.56,6.61,46.61,28.88,49.91,55.46.08.6.14,1.21.2,1.82L497,434.24ZM309.73,409.3a7.5,7.5,0,1,0,7.5,7.5A7.5,7.5,0,0,0,309.73,409.3Zm33.34-196.1a7.5,7.5,0,0,0,7.5-7.5V196a7.5,7.5,0,0,0-15,0v9.68A7.5,7.5,0,0,0,343.07,213.2Zm-66.68,0a7.5,7.5,0,0,0,7.5-7.5V196a7.5,7.5,0,1,0-15,0v9.68A7.5,7.5,0,0,0,276.39,213.2Zm33.34,256.1a7.5,7.5,0,1,0,7.5,7.5A7.5,7.5,0,0,0,309.73,469.3ZM287.36,269.1a40.67,40.67,0,0,0,21.7,6.74h.72a41.31,41.31,0,0,0,22.43-6.75A7.5,7.5,0,0,0,324,256.58a25.63,25.63,0,0,1-28.34,0,7.5,7.5,0,1,0-8.26,12.52Z"/></svg>